<svg xmlns="http://www.w3.org/2000/svg" viewBox="0 0 64 64">
    <defs/>
    <circle cx="32" cy="17" r="8"/>
    <path d="M32 30a13 13 0 10-13-13 13.014 13.014 0 0013 13zm0-23a10 10 0 11-10 10A10.011 10.011 0 0132 7zM37.285 31.02a14.745 14.745 0 01-10.57 0L32 45.995zM17 46h2v2h-2zM24 54h2v2h-2zM47 54h2v2h-2zM40 46h2v2h-2z"/>
    <path d="M50.256 42H35.53l-2.588 7.333a1 1 0 01-1.886 0L28.47 42H13.744l-5.4 18h47.312zM21 49a1 1 0 01-1 1h-4a1 1 0 01-1-1v-4a1 1 0 011-1h4a1 1 0 011 1zm7 8a1 1 0 01-1 1h-4a1 1 0 01-1-1v-4a1 1 0 011-1h4a1 1 0 011 1zm16-8a1 1 0 01-1 1h-4a1 1 0 01-1-1v-4a1 1 0 011-1h4a1 1 0 011 1zm6 9h-4a1 1 0 01-1-1v-4a1 1 0 011-1h4a1 1 0 011 1v4a1 1 0 01-1 1zM3 34h13a1.003 1.003 0 001-1v-6a5 5 0 00-10 0v.08A6.017 6.017 0 002 33a1.003 1.003 0 001 1zM57 27.08V26a4 4 0 00-8 0v1.08A6.017 6.017 0 0044 33a1.003 1.003 0 001 1h16a1.003 1.003 0 001-1 6.017 6.017 0 00-5-5.92z"/>
</svg>
