<svg xmlns="http://www.w3.org/2000/svg" width="300" height="300" fill-rule="evenodd" clip-rule="evenodd" image-rendering="optimizeQuality" shape-rendering="geometricPrecision" text-rendering="geometricPrecision" version="1.0" viewBox="0 0 7900 8222">
    <defs/>
    <defs/>
    <path d="M6717 5767v2455H0V0h5058l1659 1712v1777h-279V1906H4861V279H279v7664h6159V5767h279zm-468-4139L5139 483v1145h1110z" class="fil0"/>
    <path d="M1289 1400h2237v279H1289zM1289 2487h2237v279H1289zM646 4975h3904v279H646zM646 7097h5425v278H646zM646 6093h5425v279H646zM5464 4700l493 494 1722-2256 221 168-1915 2510-719-719z" class="fil0"/>
</svg>
