<svg xmlns="http://www.w3.org/2000/svg" viewBox="0 0 400 339.546">
    <defs/>
    <path d="M400 0H0v19.371h6.304l29.89 29.89v290.285h19.924V19.371h5.884l12.526 210.412h-5.361v11.834h14.628v11.832h17.219a83.087 83.087 0 01-.054-2.568c.001-3.741.3-7.2.869-10.432h-7.034v-54h4.156a39.845 39.845 0 012.488-6.874 47.774 47.774 0 013.468-6.126H94.794v-5h-11v61.334h-5.26L66.009 19.371H333.99l-12.525 210.412h-4.17v-61.334h-11v5h-49.831a9.944 9.944 0 01-8 4.004c-1.003 0-2.001-.154-2.968-.454-5.799-1.821-13.831-3.036-23.204-3.55h-22.885a348.157 348.157 0 00-23.462 1.867v11.133h19.1v54h-3.077c.568 3.229.863 6.683.864 10.423a80.62 80.62 0 01-.054 2.577h124.517v-11.832h13.54v-11.834h-5.363l12.524-210.412h5.889v320.175h19.924v-289.8l30.375-30.375H400V0zM269.21 186.449v54h-26.083v-54h26.083zm-63.166 0h26.083v54h-26.083v-54zm74.166 54v-54h26.084v54H280.21zM389.313 5.811a3.874 3.874 0 013.875 3.875 3.874 3.874 0 01-3.875 3.875 3.874 3.874 0 01-3.875-3.875 3.874 3.874 0 013.875-3.875zm-378.625 0a3.874 3.874 0 013.875 3.875 3.874 3.874 0 01-3.875 3.875 3.874 3.874 0 01-3.875-3.875 3.874 3.874 0 013.875-3.875zm35.467 34.513a3.874 3.874 0 11.001 7.749 3.874 3.874 0 01-.001-7.749zm-9.962-8.035L23.275 19.371h12.918v12.918zm321.529 11.91a3.874 3.874 0 01-3.875 3.875 3.874 3.874 0 113.875-3.875zm6.086-11.425V19.371h13.403l-13.403 13.403z"/>
    <path d="M162.83 250.884c.003-5.415-1.025-7.868-1.469-8.669-.501-.842-.699-1.066-1.558-1.538h-25.82a3.998 3.998 0 00-.73.48c-.341.304-.608.58-1.025 1.467-.47 1.015-1.269 3.453-1.266 8.248-.005.733.013 1.59.065 2.577h31.738c.052-.982.07-1.835.065-2.565z"/>
    <ellipse cx="146.897" cy="130.339" rx="23.49" ry="23.489" transform="rotate(-13.109 146.892 130.337)"/>
    <path d="M190.831 250.873c-.004-7.436-1.148-14.064-3.811-19.91-1.98-4.365-4.873-8.188-8.273-11.078a31.94 31.94 0 00-4.805-3.364v-42.983c7.968-.947 22.485-2.371 37.46-2.364 12.622-.025 25.63 1.071 34.686 3.917a7.993 7.993 0 0010.011-5.268 8 8 0 00-5.269-10.014c-11.828-3.638-25.918-4.611-39.429-4.638-19.602.007-37.85 2.236-43.966 3.064a7.677 7.677 0 00-1.221-.105h-38.637c-.945 0-1.847.178-2.684.488a7.966 7.966 0 00-4.307 1.42c-.266.186-3.039 2.125-6.539 5.559-3.49 3.445-7.756 8.369-10.801 14.83-2.018 4.299-3.471 9.346-3.471 14.918-.021 6.01 1.77 12.508 5.744 18.678 3.969 6.193 9.986 12.113 18.451 17.828a7.965 7.965 0 004.465 1.367 7.989 7.989 0 006.641-3.529 8 8 0 00-2.16-11.107c-7.137-4.807-11.453-9.322-13.92-13.182-2.459-3.885-3.201-7.063-3.223-10.055-.044-4.052 1.662-8.21 4.076-11.861V202.9c.254.468.526.939.832 1.422 2.68 4.199 7.172 8.439 13.354 12.602 4.572 3.084 5.783 9.311 2.701 13.881a9.992 9.992 0 01-8.301 4.414 9.96 9.96 0 01-5.584-1.709c-4.576-3.09-8.465-6.253-11.758-9.532a30.17 30.17 0 00-3.258 4.852c-3.418 6.309-4.877 13.695-4.879 22.045.055 14.125 3.977 31.668 12.715 55.897 2.445 6.75 9.9 10.236 16.65 7.791 6.752-2.445 10.24-9.9 7.793-16.65-8.242-22.625-11.211-38.027-11.156-47.037-.004-4.762.762-7.6 1.457-9.102.539-1.145.979-1.639 1.523-2.123.366-.317.877-.65 1.569-.971h26.772c.028.013.064.025.092.039 1.457.764 1.932 1.174 2.736 2.533.756 1.369 1.721 4.254 1.719 9.623.055 9.01-2.914 24.414-11.156 47.037-2.445 6.75 1.043 14.205 7.793 16.65 1.463.529 2.959.781 4.43.781 5.318 0 10.307-3.285 12.223-8.572v-.002c8.742-24.226 12.66-41.767 12.715-55.896z"/>
</svg>
